<?xml version="1.0" encoding="utf-8"?>
<!-- Generator: Adobe Illustrator 26.2.1, SVG Export Plug-In . SVG Version: 6.00 Build 0)  -->
<svg version="1.1" id="Capa_1" xmlns="http://www.w3.org/2000/svg" xmlns:xlink="http://www.w3.org/1999/xlink" x="0px" y="0px"
	 viewBox="0 0 24 24" style="enable-background:new 0 0 24 24;" xml:space="preserve">
<style type="text/css">
	.st0{fill:url(#SVGID_1_);}
	.st1{fill:url(#SVGID_00000082331550535184625820000009249458083778153887_);}
	.st2{fill:url(#SVGID_00000170278792898897246180000003714017970026480826_);}
	.st3{fill:url(#SVGID_00000010995412186892200600000001997337633739274636_);}
	.st4{fill:url(#SVGID_00000113315353791890564140000002708395804387418024_);}
	.st5{fill:url(#SVGID_00000147201449589940199480000013304363305599669640_);}
</style>
<g>
	<linearGradient id="SVGID_1_" gradientUnits="userSpaceOnUse" x1="65" y1="44.5" x2="71" y2="44.5">
		<stop  offset="0" style="stop-color:#7C01FE"/>
		<stop  offset="1" style="stop-color:#F721ED"/>
	</linearGradient>
	<rect x="65" y="39" class="st0" width="6" height="11"/>
</g>
<g>
	
		<linearGradient id="SVGID_00000118388292719930356570000013537011140852410542_" gradientUnits="userSpaceOnUse" x1="15.6924" y1="0.2485" x2="-4.5629" y2="25.0144">
		<stop  offset="0" style="stop-color:#7C01FE"/>
		<stop  offset="1" style="stop-color:#F721ED"/>
	</linearGradient>
	<path style="fill:url(#SVGID_00000118388292719930356570000013537011140852410542_);" d="M10.8,0c0,1.7,0,3.4,0,5
		c0,0.3,0,0.6,0,0.9c0,1,0.7,1.6,1.7,1.6c1.9,0,3.7,0,5.6,0c0.2,0,0.3,0,0.5,0c0,2.2,0,4.5,0,6.7c-0.1,0-0.3,0-0.4,0
		c-3.1,0-6.3,0-9.4,0c-2,0-3.3,1.3-3.3,3.2c0,2,0,4,0,6.1c0,0.1,0,0.3,0,0.5c-1,0-2.1,0-3-0.1C1,23.6,0,22.4,0,21c0-1.9,0-3.8,0-5.7
		c0-4,0-8,0-12.1C0,1.3,1.3,0,3.3,0c2.3,0,4.7,0,7,0C10.5,0,10.6,0,10.8,0z"/>
</g>
<g>
	<g>
		
			<linearGradient id="SVGID_00000020387980791745681730000001857363988687840440_" gradientUnits="userSpaceOnUse" x1="26.8604" y1="9.1594" x2="3.8979" y2="29.963">
			<stop  offset="0" style="stop-color:#8203FD"/>
			<stop  offset="1" style="stop-color:#F721ED"/>
		</linearGradient>
		<path style="fill:url(#SVGID_00000020387980791745681730000001857363988687840440_);" d="M13.2,19.6c0-1.1,0-2.2,0-3.2
			c0-0.8,0.3-1.1,1.1-1.1c0.5,0,1,0,1.5,0c1.5,0,2.7,1.1,2.7,2.6c0,1.1,0,2.3,0,3.4c0,1.5-1.2,2.6-2.7,2.6c-0.5,0-1,0-1.5,0
			c-0.8,0-1.1-0.3-1.1-1.1C13.2,21.8,13.2,20.7,13.2,19.6z M15,22.2c0.3,0,0.6,0,0.8,0c0.6,0,0.9-0.3,0.9-0.9c0-1.1,0-2.3,0-3.4
			c0-0.5-0.3-0.8-0.7-0.8c-0.3,0-0.7,0-1,0C15,18.8,15,20.5,15,22.2z"/>
	</g>
</g>
<g>
	<g>
		
			<linearGradient id="SVGID_00000124872202608769502360000003325764519780149925_" gradientUnits="userSpaceOnUse" x1="24.068" y1="4.9898" x2="1.1055" y2="25.7934">
			<stop  offset="0" style="stop-color:#8203FD"/>
			<stop  offset="1" style="stop-color:#F721ED"/>
		</linearGradient>
		<path style="fill:url(#SVGID_00000124872202608769502360000003325764519780149925_);" d="M8.8,21.4c0,0.6,0,1.1,0,1.6
			c0,0.6-0.4,1-0.9,1C7.4,24,7,23.6,7,23c0-2.2,0-4.5,0-6.7c0-0.6,0.3-1,1-1c0.6,0,1.1,0,1.7,0c1.7,0,3.1,1.4,3.1,3
			c0,1.7-1.4,3-3.1,3C9.4,21.4,9.1,21.4,8.8,21.4z M8.8,19.6c0.8,0,1.5,0.1,2-0.6c0.3-0.5,0.2-1-0.1-1.4c-0.4-0.5-1.1-0.6-1.9-0.4
			C8.8,17.9,8.8,18.8,8.8,19.6z"/>
	</g>
</g>
<g>
	
		<linearGradient id="SVGID_00000036219187869705895740000005293968213720306874_" gradientUnits="userSpaceOnUse" x1="16.8973" y1="1.2339" x2="-3.358" y2="25.9998">
		<stop  offset="0" style="stop-color:#7C01FE"/>
		<stop  offset="1" style="stop-color:#F721ED"/>
	</linearGradient>
	<path style="fill:url(#SVGID_00000036219187869705895740000005293968213720306874_);" d="M12.4,6c0-2,0-3.9,0-5.8
		c2,1.9,4,3.9,5.9,5.8C16.5,6,14.5,6,12.4,6z"/>
</g>
<g>
	
		<linearGradient id="SVGID_00000173855011935402315940000017691826665489792951_" gradientUnits="userSpaceOnUse" x1="28.7587" y1="12.093" x2="5.7962" y2="32.8966">
		<stop  offset="0" style="stop-color:#8203FD"/>
		<stop  offset="1" style="stop-color:#F721ED"/>
	</linearGradient>
	<path style="fill:url(#SVGID_00000173855011935402315940000017691826665489792951_);" d="M21.3,17.1c0,0.5,0,1.1,0,1.7
		c0.3,0,0.6,0,0.9,0c1.3,0,1.7,0.2,1.7,0.9c0,0.6-0.4,0.9-1.7,0.9c-0.3,0-0.6,0-0.9,0c0,0.7,0,1.3,0,1.9c0,0.3,0,0.5,0,0.8
		c0,0.5-0.4,0.8-0.9,0.8c-0.4,0-0.8-0.3-0.9-0.8c0-0.1,0-0.2,0-0.3c0-2.2,0-4.3,0-6.5c0-0.8,0.3-1.1,1.1-1.1c0.8,0,1.5,0,2.3,0
		c0.6,0,1.1,0.4,1,0.9c0,0.5-0.4,0.8-1,0.8c-0.5,0-1,0-1.5,0C21.4,17.1,21.4,17.1,21.3,17.1z"/>
</g>
</svg>
